<?xml version="1.0" encoding="utf-8"?>
<svg xmlns="http://www.w3.org/2000/svg" xmlns:xlink="http://www.w3.org/1999/xlink" version= "1.1" width="1182px" height="845px" viewBox="-231 291 1182 845">
<g id="layer1">
<g style="fill:rgb(118,184,188); fill-opacity:1.0; stroke-linejoin: miter">
<path d="M-231.001,290.30252C-231.18573,290.30252,-231.36288,290.3759,-231.4935,290.5065C-231.62411,290.63712,-231.6975,290.81427,-231.6975,290.999L-231.69649,1136.0C-231.69649,1136.3846,-231.38466,1136.6965,-231.0,1136.6965L951.001,1136.6975C951.18567,1136.6975,951.36285,1136.624,951.49347,1136.4934C951.6241,1136.3628,951.69745,1136.1857,951.69745,1136.001L951.6965,291.0C951.6965,290.61536,951.38464,290.30353,951.0,290.30353L-231.001,290.30252 Z"/>
</g>
<g style="fill:rgb(0,0,0); fill-opacity:0.40392157; stroke-linejoin: miter">
<path d="M864.1315,1027.4176L859.5124,1028.5974Q826.67255,1032.1632,667.334,1034.301Q506.893,1036.4371,289.47342,1036.0333Q81.97474,1035.4691,-42.432102,1032.731Q-82.29343,1031.846,-108.09921,1030.8021L-129.78827,1029.7291Q-147.66205,1028.6216,-147.86299,1027.4176Q-142.43703,1023.72266,0.34017184,1021.26917Q143.11732,1018.81555,358.13422,1018.7223Q573.1511,1018.81555,715.9283,1021.26917Q858.70557,1023.72266,864.1315,1027.4176"/>
</g>
<g style="fill:rgb(34,43,50); fill-opacity:1.0; stroke-linejoin: miter">
<path d="M194.09479,688.1677L334.5418,688.1682L474.98892,688.1687Q474.98892,716.9661,474.98892,745.76355Q334.5418,745.76404,194.09479,745.7645Q194.09479,716.9661,194.09479,688.1677"/>
</g>
<g style="fill:rgb(34,43,50); fill-opacity:1.0; stroke-linejoin: miter">
<path d="M326.17087,690.0294L341.5882,690.0299L357.00555,690.03033Q357.00558,860.10986,357.00558,1030.1893Q341.58823,1030.1897,326.1709,1030.1903Q326.1709,860.10986,326.17087,690.0294"/>
</g>
<g style="fill:rgb(158,223,229); fill-opacity:1.0; stroke-linejoin: miter">
<path d="M474.5375,597.6281C474.5985,611.80634,457.7065,613.7482,436.8805,613.83856C416.05502,613.9286,399.14673,612.13947,399.08548,597.9541 Z"/>
</g>
<g>
<g style="fill:rgb(60,70,79); fill-opacity:1.0; stroke-linejoin: miter">
<path d="M435.14386,957.20544L434.64847,964.7553Q431.0757,987.5731,413.58136,1001.27783Q395.96536,1014.9723,372.05945,1012.4282Q349.2423,1008.8552,335.5376,991.36053Q331.14612,985.70544,328.2984,979.03265L325.90317,972.1723Q323.92633,965.09015,323.89188,957.38745Q324.45013,933.749,340.12057,918.0267Q355.7914,902.30493,379.42776,901.6706Q403.06644,902.22864,418.78802,917.8985Q434.5094,933.56946,435.14386,957.20544 Z"/>
</g>
<g style="fill:rgb(50,50,50); fill-opacity:1.0; stroke-linejoin: miter">
<path d="M380.52908,952.54913C377.0598,952.5641,374.2584,955.38916,374.2734,958.8599C374.28812,962.329,377.11346,965.12994,380.58328,965.1152 Z"/>
</g>
<g style="fill:rgb(50,50,50); fill-opacity:1.0; stroke-linejoin: miter">
<path d="M380.60593,970.37885C379.13556,970.3858,377.94772,971.58356,377.95407,973.0548C377.96054,974.52466,379.1575,975.71246,380.62906,975.7062C382.1002,975.7002,383.28708,974.5019,383.28064,973.0316C383.2745,971.5607,382.0772,970.37286,380.60593,970.37885 Z"/>
</g>
<g style="fill:rgb(50,50,50); fill-opacity:1.0; stroke-linejoin: miter">
<path d="M387.69904,978.52344L387.79175,1000.0945C394.0957,998.9962,399.911,996.49036,404.90753,992.9126L389.58984,977.72644C388.97516,978.02026,388.34598,978.28876,387.69904,978.52344 Z"/>
</g>
<g style="fill:rgb(50,50,50); fill-opacity:1.0; stroke-linejoin: miter">
<path d="M399.52945,967.7044L414.84717,982.89056C418.38196,977.864,420.83542,972.02484,421.87964,965.7111L400.30704,965.8053C400.0773,966.45245,399.8183,967.08777,399.52945,967.7044 Z"/>
</g>
<g style="fill:rgb(50,50,50); fill-opacity:1.0; stroke-linejoin: miter">
<path d="M399.45068,949.7984C399.745,950.413,400.01166,951.04297,400.24704,951.6906L421.81885,951.5985C420.72116,945.2932,418.21426,939.47797,414.63754,934.48083L399.45068,949.7984 Z"/>
</g>
<g style="fill:rgb(50,50,50); fill-opacity:1.0; stroke-linejoin: miter">
<path d="M371.52383,939.93933C372.13898,939.6442,372.76868,939.377,373.4153,939.14233L373.3222,917.57104C367.01846,918.6688,361.2032,921.17584,356.20667,924.7526L371.52383,939.93933 Z"/>
</g>
<g style="fill:rgb(50,50,50); fill-opacity:1.0; stroke-linejoin: miter">
<path d="M380.50638,947.2826C381.97775,947.2766,383.16443,946.07776,383.15833,944.6075C383.15186,943.1372,381.95486,941.9484,380.48352,941.95526C379.0132,941.9613,377.82562,943.16,377.83176,944.6304C377.83914,946.1016,379.03638,947.289,380.50638,947.2826 Z"/>
</g>
<g style="fill:rgb(50,50,50); fill-opacity:1.0; stroke-linejoin: miter">
<path d="M404.61307,924.5406C399.5867,921.0076,393.7483,918.55237,387.43622,917.5084L387.52905,939.07965C388.178,939.3085,388.81064,939.5701,389.42734,939.8599L404.61307,924.5406 Z"/>
</g>
<g style="fill:rgb(50,50,50); fill-opacity:1.0; stroke-linejoin: miter">
<path d="M361.58472,949.959L346.26752,934.7728C342.7329,939.7999,340.2783,945.6382,339.23474,951.9515L360.8073,951.85974C361.03604,951.20953,361.29465,950.5756,361.58472,949.959 Z"/>
</g>
<g style="fill:rgb(50,50,50); fill-opacity:1.0; stroke-linejoin: miter">
<path d="M356.49902,993.1211C361.52643,996.6544,367.3648,999.1096,373.67795,1000.15295L373.58475,978.5823C372.93607,978.353,372.3027,978.09186,371.68588,977.80206L356.49902,993.1211 Z"/>
</g>
<g style="fill:rgb(50,50,50); fill-opacity:1.0; stroke-linejoin: miter">
<path d="M360.86588,965.972L339.29523,966.0665C340.3932,972.3692,342.89914,978.18494,346.47586,983.1841L361.66245,967.86414C361.36844,967.2501,361.10056,966.61975,360.86588,965.972 Z"/>
</g>
<g style="fill:rgb(50,50,50); fill-opacity:1.0; stroke-linejoin: miter">
<path d="M369.00937,958.87964C369.00293,957.4081,367.80603,956.2213,366.335,956.22723C364.86368,956.23346,363.67667,957.43066,363.68314,958.90216C365.15363,958.89575,366.34137,957.6984,366.335,956.22723 Z"/>
</g>
<g style="fill:rgb(50,50,50); fill-opacity:1.0; stroke-linejoin: miter">
<path d="M392.10345,958.77997C392.10977,960.2508,393.30728,961.4377,394.77808,961.4313C396.24942,961.42474,397.4361,960.2282,397.43018,958.7568C395.95868,958.7642,394.772,959.96136,394.77808,961.4313 Z"/>
</g>
<g style="fill:rgb(50,50,50); fill-opacity:1.0; stroke-linejoin: miter">
<path d="M380.26114,890.2472C342.38254,890.4108,311.80725,921.2488,311.97034,959.1295C312.13345,997.00867,342.97324,1027.5833,380.85153,1027.4205C418.7308,1027.2566,449.30524,996.41675,449.14206,958.5381C448.97906,920.65765,418.14044,890.0841,380.26114,890.2472 Z M380.7671,1007.8214C353.7107,1007.93884,331.6829,986.09937,331.56607,959.04266C331.4499,931.98676,353.28864,909.95825,380.34525,909.84143C407.40143,909.7241,429.42957,931.5644,429.54593,958.61957C429.66278,985.67737,407.82352,1007.7051,380.7671,1007.8214 Z"/>
</g>
</g>
<g style="fill:rgb(0,0,0); fill-opacity:1.0; stroke-linejoin: miter">
<path d="M697.2148,628.603C688.73694,615.7465,667.15375,611.34534,650.7048,606.05225C535.8798,578.84216,497.77484,588.02496,478.6183,585.40845C474.75146,584.39484,471.29303,581.037,468.12585,579.0838C461.18405,574.8008,453.98343,571.03864,447.1422,566.88794C435.83997,560.032,383.70163,531.8054,369.6162,526.72687C338.6654,515.5672,289.77216,506.72272,172.09113,516.6596C167.30792,515.36676,164.40779,511.52344,159.32408,510.34308C154.29575,509.17706,149.69467,511.8401,146.13936,512.67615C146.22028,516.5347,145.88898,519.6674,145.27243,522.6894C122.30734,532.4908,99.058304,540.0341,76.22729,549.8333C66.70006,553.92334,56.869194,557.9256,47.159924,562.2446C41.12023,564.93146,35.355804,568.7356,28.542469,570.9701C21.142643,573.3966,13.037697,572.35034,4.8955936,574.257C-9.926503,577.7298,-26.012566,578.25464,-42.407005,578.5562C-44.267174,581.77716,-47.515026,585.0261,-48.27712,589.0483C-45.43351,589.9128,-44.473843,591.86566,-44.60765,595.8566C-49.593903,603.3142,-48.20262,613.90204,-48.118294,625.9035C-58.784836,631.4235,-60.324226,651.4855,-57.4949,667.34955L-58.38734,671.4503C-57.79653,675.9359,-56.315163,680.67163,-56.05184,685.5449C-52.02582,688.2202,-47.45666,692.5258,-44.630154,696.4165C-43.25134,698.31445,-42.570637,701.5919,-40.054913,702.3122C-26.581758,712.05884,41.440742,713.7913,41.440742,713.7913L45.019802,713.9717C44.45791,710.59326,44.15426,707.12756,44.13909,703.59357C43.985348,667.95215,72.75388,638.93634,108.39384,638.78265C144.03462,638.6289,173.05048,667.3959,173.2042,703.03735C173.23006,709.02277,172.45349,718.74506,170.95114,724.252L528.4674,722.0775C526.2676,715.62445,525.0604,708.71326,525.02905,701.5198C524.8757,665.879,553.64417,636.8614,589.28503,636.7078C624.92676,636.5535,653.94366,665.32184,654.09674,700.96265C654.12384,707.2099,653.2599,713.2523,651.62805,718.97174L655.28125,718.87933C655.28125,718.87933,683.44214,717.3977,690.29755,714.178C697.1529,710.95953,699.79913,701.8507,699.79913,701.8507L697.8971,682.74915C697.8979,682.7483,706.1846,642.21515,697.20966,628.603 Z M125.97136,584.2061C104.52544,570.0897,115.78351,553.45184,115.20737,553.5062C114.866714,553.8122,114.62105,554.0561,114.46721,554.2206C114.91841,553.73816,115.141464,553.51294,115.20737,553.5062C120.69563,548.5726,152.04501,526.4767,263.5897,525.8208C267.16284,545.3697,270.76172,571.0567,274.3337,590.6037C229.44562,589.4375,141.11029,590.57794,125.96803,584.2061 Z M413.56644,590.2401C403.7641,590.2819,306.18295,590.67706,306.18295,590.67706C306.18295,590.67706,290.25256,549.2162,284.52008,526.1887C285.17606,526.2467,304.54333,527.0088,304.54333,527.0088C304.54333,527.0088,342.8967,531.2081,366.93307,539.02637C385.8432,545.1769,423.23267,570.063,423.9497,571.5412C412.73596,572.1639,410.1186,581.0101,413.56607,590.24054 Z"/>
</g>
<g style="fill:rgb(50,50,50); fill-opacity:1.0; stroke-linejoin: miter">
<path d="M442.88425,746.03394C447.91187,749.567,453.75052,752.0227,460.06363,753.066L459.97064,731.49524C459.32184,731.2665,458.6878,731.00525,458.071,730.71533L442.88425,746.03394 Z"/>
</g>
<g style="fill:rgb(191,201,210); fill-opacity:1.0; stroke-linejoin: miter">
<path d="M284.51718,525.55634C284.1678,525.5582,283.88596,525.843,283.8875,526.1918C283.8875,526.26086,283.89917,526.3279,283.91992,526.3889L283.91833,526.39075C289.67172,549.4699,305.59238,590.9046,305.59238,590.9046C305.68668,591.149,305.92255,591.3104,306.18542,591.3094L413.56583,590.8741C413.64368,590.87384,413.7208,590.85846,413.79327,590.8299L413.79565,590.8291C414.1179,590.70374,414.27936,590.3426,414.15817,590.01874C411.33444,582.4566,412.74756,575.52924,419.27136,573.0926L419.27136,573.0935C420.605,572.59406,422.1712,572.2725,423.9847,572.1726C424.1961,572.1612,424.38788,572.0438,424.49487,571.86194C424.6023,571.679,424.61145,571.4552,424.51917,571.2657C424.4857,571.19653,424.44696,571.1408,424.41632,571.1007L424.41632,571.1007C422.8077,568.99,385.887,544.5253,367.12878,538.4243L367.12878,538.4258C343.30716,530.6766,305.51886,526.47986,304.62833,526.3822L304.62656,526.3832C304.6477,526.3854,304.66812,526.3889,304.6782,526.3916L304.67807,526.392L304.5411,526.37646L304.56827,526.37726C304.54712,526.37646,285.3763,525.6211,284.58252,525.55945L284.58066,525.56085C284.55978,525.55725,284.53857,525.55634,284.51718,525.55634 Z"/>
</g>
<g style="fill:rgb(191,201,210); fill-opacity:1.0; stroke-linejoin: miter">
<path d="M114.77399,553.966C114.818375,554.0074,114.86783,554.0427,114.9211,554.0703C114.87097,554.0445,114.821045,554.0106,114.77399,553.966 Z M114.78731,553.97974C114.85156,554.0365,114.92757,554.08057,115.01033,554.1078L115.00986,554.10864C115.009674,554.10913,115.00922,554.11,115.00877,554.1104L115.00896,554.1118C114.91574,554.08234,114.84334,554.03546,114.787125,553.97974 Z M263.5859,525.18805C151.98721,525.84424,120.44571,547.9469,114.78473,553.0361C114.64493,553.1606,114.571304,553.3385,114.574646,553.5186L114.574646,553.51953C114.53989,553.60474,114.479034,553.7449,114.38333,553.9612L114.38333,553.9619C113.74034,555.41656,112.13674,559.0407,112.12961,563.71936L112.12961,563.7202C112.12045,569.8379,114.84018,577.6262,125.59364,584.7153L125.59364,584.7167C125.63295,584.7448,125.67639,584.7689,125.72319,584.7888C137.22832,589.6299,189.92851,590.1717,234.29105,590.6404C249.13708,590.79724,263.09296,590.9448,274.31717,591.2366C274.3236,591.2366,274.33014,591.23596,274.33664,591.23596C274.51984,591.2356,274.6942,591.15533,274.81415,591.0158C274.93814,590.87054,274.99026,590.6772,274.956,590.4905C273.1718,580.7275,271.38147,569.4334,269.58865,558.12524C267.79663,546.82214,266.00214,535.5031,264.2147,525.7219L264.2144,525.7219L264.21194,525.7072C264.15686,525.4053,263.8933,525.1872,263.587,525.18805 Z"/>
</g>
<g style="fill:rgb(255,227,0); fill-opacity:1.0; stroke-linejoin: miter">
<path d="M684.8464,663.97205Q685.13654,660.08545,686.15686,650.20905Q686.4254,647.4742,688.3006,632.4684L700.8316,622.02966C701.7935,633.61945,701.6244,646.61194,697.3157,653.26935C694.4609,657.6894,690.0603,661.1336,684.85205,663.97205 Z"/>
</g>
<g style="fill:rgb(255,0,0); fill-opacity:1.0; stroke-linejoin: miter">
<path d="M-49.244923,605.0653L-44.05941,594.94916Q-34.654736,605.7824,-31.588112,610.7929Q-30.310928,612.8196,-29.538218,614.61176L-28.923239,616.3298L-28.623373,617.901L-28.670433,619.3095L-29.085331,620.54614L-29.847408,621.6208L-30.924314,622.5483L-32.285282,623.3423Q-33.78809,624.0706,-35.732014,624.59216Q-41.81692,626.0406,-49.60407,626.69183L-49.244923,605.0653"/>
</g>
<g style="fill:rgb(0,0,0); fill-opacity:1.0; stroke-linejoin: miter">
<path d="M484.09097,985.91644Q481.38193,985.8423,477.63608,987.9324Q475.74567,988.9641,472.21622,991.4076L447.49933,1006.2269Q443.12204,1016.2368,443.14545,1019.51587Q442.96793,1022.9772,446.7602,1023.85803L454.30853,1025.1189L464.387,1027.556Q467.09677,1028.1692,469.42557,1028.5443Q475.04053,1029.4541,482.54498,1029.6437Q490.55518,1029.8987,492.34094,1028.5598Q494.03082,1027.6792,495.35193,1024.2566Q498.24365,1024.1638,499.25574,1022.85095Q500.25067,1021.6874,500.35822,1019.14197Q500.05945,1009.4463,493.734,995.1626Q489.18317,985.7167,484.1338,985.9175"/>
</g>
<g style="fill:rgb(0,0,0); fill-opacity:1.0; stroke-linejoin: miter">
<path d="M453.0876,685.00604Q449.19232,684.90533,444.82214,687.2992Q440.0222,689.9953,436.91507,693.849Q435.12225,696.16583,435.00693,698.2817Q434.96326,698.9151,435.04407,699.6401Q435.56052,702.438,436.00073,707.2088L467.8474,705.7465L467.31207,695.00354Q467.0658,692.9888,465.91354,691.3871Q463.98715,688.7825,460.2027,686.852Q456.61945,685.08795,453.11166,685.0065"/>
</g>
<g style="fill:rgb(24,63,90); fill-opacity:1.0; stroke-linejoin: miter">
<path d="M449.6436,677.93585L437.23145,685.08624Q435.02518,693.10596,434.85257,699.33356L439.47885,694.93933Q455.5338,692.4159,459.90518,692.2936Q464.88834,691.9993,466.91714,693.6833Q468.16226,691.00336,467.92746,690.5541Q467.85742,690.36896,467.73007,690.2917Q466.84323,689.8571,466.51776,689.5345Q466.10492,689.1629,465.7117,688.50793Q464.88995,687.2171,463.22278,682.8167L449.65967,677.9417"/>
</g>
<g style="fill:rgb(255,255,255); fill-opacity:1.0; stroke-linejoin: miter">
<path d="M437.4478,721.553L434.02335,729.0878Q421.9577,729.99243,413.68982,737.44214Q407.97452,742.5918,405.75537,750.0343Q404.00406,755.7238,404.57208,764.1736Q404.8619,768.71027,405.72537,774.30994Q410.59003,800.82306,410.21628,800.9678Q411.11194,809.50934,409.9432,815.7827L481.4495,780.8296Q485.67896,778.35065,496.11618,780.01526Q487.64062,753.51184,481.2612,747.9426Q479.38446,746.04175,476.8094,744.47986L468.7703,740.58606Q467.47354,739.9182,466.3838,738.9345Q463.74142,736.6843,462.08463,730.54913L437.4939,721.56976"/>
</g>
<g style="fill:rgb(24,63,90); fill-opacity:1.0; stroke-linejoin: miter">
<path d="M489.60184,989.0582Q485.91913,994.2064,489.5402,989.1609 M446.68182,761.18463Q436.66364,787.04553,430.1863,795.69696Q423.96527,804.9658,409.08362,814.4578Q407.62827,828.58386,407.73477,836.22815Q407.8556,849.8601,411.79813,859.23956Q413.68692,863.89764,416.74982,869.0939L430.33936,890.1379Q433.3591,895.04315,435.5646,899.7197Q441.06842,910.95135,446.6205,932.59875Q446.20322,979.84406,446.20148,1010.2809L448.79483,1011.04346Q451.45187,1011.5912,454.88794,1010.8872Q474.69843,1004.2352,476.66217,1005.3478L473.88956,993.20496Q484.07516,997.31555,487.65823,991.73926Q487.328,991.7014,487.59515,990.4884Q490.46378,979.2323,491.1323,974.70636Q492.01782,969.1492,491.94495,965.1656Q491.89468,961.134,490.97162,958.1176L482.8,935.90295Q484.56668,887.8899,483.18503,867.61847Q482.67462,858.9643,481.53232,850.85547Q481.27005,847.7167,476.51166,821.8334Q475.53275,815.61926,475.26736,810.801Q474.1673,795.61206,480.186,767.6627L446.82092,761.2114"/>
</g>
<g style="fill:rgb(24,63,90); fill-opacity:1.0; stroke-linejoin: miter">
<path d="M433.74646,729.1095Q430.86758,729.3441,428.20645,729.95404L428.2081,729.95416Q438.21732,741.49854,441.833,747.5907Q446.07446,754.48676,448.51477,763.7597L456.56348,765.2247Q454.3129,759.3925,452.96188,756.43304Q449.84216,749.44775,445.69827,743.72614Q442.1213,738.6288,433.7482,729.1095 Z"/>
</g>
<g style="fill:rgb(24,63,90); fill-opacity:1.0; stroke-linejoin: miter">
<path d="M467.80386,740.0271Q470.46414,746.36926,471.60184,750.98224Q472.9566,756.0235,474.7262,768.4827L479.42044,768.39746Q477.1153,755.1976,475.47104,748.83954Q474.553,745.24493,473.6295,742.9407L473.6316,742.9406L468.7703,740.58606Q468.27295,740.32983,467.80597,740.02716 Z"/>
</g>
<g style="fill:rgb(255,190,170); fill-opacity:1.0; stroke-linejoin: miter">
<path d="M438.51483,762.6157Q437.5506,762.66724,438.15717,764.1915Q438.64392,765.6024,441.12067,769.6742Q428.87958,772.135,425.66666,776.01416Q423.39813,778.23834,420.94705,783.8329L424.21722,787.1125Q432.23447,795.1802,441.79474,798.3397Q444.90048,799.4281,448.78738,800.44635L464.86832,804.23456L477.07285,807.6084Q481.76883,808.7314,486.18988,808.9592Q496.90924,809.43854,498.92548,803.0351Q500.89587,796.391,495.0658,779.47797Q489.60056,777.93524,484.78525,778.1612Q482.04453,778.40607,479.97556,781.2748Q477.3568,778.7519,474.90628,778.35895Q473.96298,778.16595,472.58612,778.13Q465.09457,778.2678,463.18365,778.01154Q459.72522,777.70154,456.03296,776.6284Q452.28748,775.48303,450.7355,774.2397Q450.0043,773.64886,449.6203,772.96796Q448.29126,769.7325,447.97232,769.4303Q447.30722,768.4194,446.31982,767.4954Q441.72266,763.40765,438.57025,762.6183"/>
</g>
<g style="fill:rgb(255,190,170); fill-opacity:1.0; stroke-linejoin: miter">
<path d="M454.36786,690.3214Q449.2957,689.9655,439.47418,694.9444L438.91592,705.33636L437.60425,705.72235Q436.1275,703.1249,434.9683,703.7557Q433.12466,704.6109,433.17157,707.3494Q433.67462,712.4544,437.9559,715.72253Q438.8682,719.74036,438.79266,721.1179Q438.8192,722.4011,437.67502,723.55396L455.96033,741.6026L457.01407,746.5672L459.0088,738.2987L460.97977,732.664L460.93716,725.7685Q463.02487,724.2654,463.76553,722.85126Q464.7497,721.31714,465.4455,716.002Q466.9097,715.7332,467.5897,713.9093Q469.08948,709.64215,469.13733,705.7305Q469.05597,704.16473,468.3395,703.8805Q468.08997,703.7769,467.7124,703.9695L466.3241,704.9062Q466.30313,696.68353,465.53397,692.8721Q458.23425,690.3013,454.38962,690.32196"/>
</g>
<g style="fill:rgb(0,0,0); fill-opacity:1.0; stroke-linejoin: miter">
<path d="M441.47903,770.2613Q444.0582,773.9166,450.89835,775.987Q454.3553,777.02954,460.19583,777.99176Q467.3349,779.1274,472.06125,779.46265L472.06232,779.4609Q472.07916,779.43274,470.9273,779.25806Q464.3439,778.2999,462.90976,778.0682Q460.78177,777.7361,459.2539,777.4575Q455.4898,776.77637,452.77853,775.9526Q451.84482,775.67377,450.35245,775.165L444.99847,772.8941L441.48077,770.26135 Z M480.97052,781.6029Q482.03058,784.25037,482.19992,785.89514Q482.33963,787.27606,481.55438,787.97614Q480.9355,788.5666,479.53555,789.1036L478.08234,789.624Q475.9627,789.9916,474.89044,790.3808Q473.65045,790.8058,472.51883,791.5053Q471.48337,792.14764,470.51074,793.0101Q465.88354,797.5057,465.21985,797.93353Q463.51926,799.3141,461.86813,800.0989Q459.289,801.3609,455.6903,801.28937Q455.35226,801.2826,455.00516,801.2641Q451.50494,801.1653,443.87048,799.2092L443.8687,799.2097Q451.44882,801.5692,455.17197,801.77466Q455.75058,801.8211,456.30988,801.8322Q459.84128,801.9024,462.6002,800.56903Q464.20462,799.8183,466.12704,798.36743Q466.7088,798.0185,472.1288,793.2987Q473.4164,792.25574,474.36398,791.67896Q475.4339,791.02264,476.60663,790.5408Q477.239,790.2121,481.34186,788.99304Q482.1928,788.68274,482.6108,788.2675Q484.10828,786.83844,480.97775,781.6097L480.97272,781.60297 Z M464.6653,868.9662L477.6115,903.8063Q481.00302,916.59106,481.84482,921.7831Q482.79672,927.0603,482.78986,934.162Q483.20493,925.82404,482.6765,920.53345Q482.13525,914.5854,480.3683,908.23834Q477.49628,897.2372,464.68582,869.01013L464.6653,868.9662 Z M449.50546,936.3749L449.5077,936.37994L449.50873,936.37994L449.50546,936.3749 Z M449.50882,936.3828L460.64944,961.63403Q461.20303,956.8279,458.9723,952.1115Q456.96603,947.3518,449.51068,936.3828 Z M460.65225,961.6417Q460.06314,965.93634,460.1765,966.5567Q460.19727,967.8605,460.8925,969.38745Q461.2936,970.24927,461.89587,971.20496Q466.1928,977.48175,467.83286,980.50256Q470.7637,985.642,474.86392,993.8529L460.67123,961.68317L460.65225,961.6417 Z"/>
</g>
<g>
<g style="fill:rgb(60,70,79); fill-opacity:1.0; stroke-linejoin: miter">
<path d="M370.0198,965.3522L369.5244,972.90204Q365.9517,995.71985,348.4573,1009.42456Q330.84134,1023.119,306.9354,1020.57495Q284.11832,1017.00195,270.41357,999.5073Q266.02213,993.8522,263.17438,987.1794L260.77917,980.31903Q258.80234,973.2369,258.76788,965.53424Q259.32614,941.89575,274.99655,926.1734Q290.6674,910.45166,314.30374,909.8173Q337.9424,910.37537,353.66394,926.0452Q369.3853,941.71625,370.0198,965.3522 Z"/>
</g>
<g style="fill:rgb(50,50,50); fill-opacity:1.0; stroke-linejoin: miter">
<path d="M315.4051,960.69586C311.9358,960.7108,309.13437,963.5359,309.14938,967.00665C309.1641,970.4757,311.98947,973.2767,315.45926,973.2619 Z"/>
</g>
<g style="fill:rgb(50,50,50); fill-opacity:1.0; stroke-linejoin: miter">
<path d="M315.48193,978.5256C314.0115,978.53253,312.8237,979.7303,312.83005,981.20154C312.8365,982.6714,314.0335,983.8592,315.505,983.8529C316.97617,983.8469,318.16302,982.6486,318.15662,981.17834C318.15048,979.70746,316.9532,978.51965,315.48193,978.5256 Z"/>
</g>
<g style="fill:rgb(50,50,50); fill-opacity:1.0; stroke-linejoin: miter">
<path d="M322.575,986.67017L322.66766,1008.2412C328.97162,1007.1428,334.78696,1004.6371,339.78348,1001.0593L324.46576,985.87317C323.8511,986.167,323.22195,986.4355,322.575,986.67017 Z"/>
</g>
<g style="fill:rgb(50,50,50); fill-opacity:1.0; stroke-linejoin: miter">
<path d="M334.4054,975.85114L349.72308,991.0373C353.25793,986.01074,355.7114,980.1715,356.75558,973.85785L335.183,973.952C334.95322,974.5992,334.6942,975.2345,334.4054,975.85114 Z"/>
</g>
<g style="fill:rgb(50,50,50); fill-opacity:1.0; stroke-linejoin: miter">
<path d="M334.32663,957.9451C334.62097,958.5597,334.8876,959.1897,335.123,959.83734L356.69476,959.74524C355.5971,953.43994,353.09024,947.62463,349.51352,942.62756L334.32663,957.9451 Z"/>
</g>
<g style="fill:rgb(50,50,50); fill-opacity:1.0; stroke-linejoin: miter">
<path d="M306.3998,948.08606C307.01498,947.79095,307.64465,947.52374,308.29126,947.2891L308.1982,925.71783C301.89447,926.81555,296.07913,929.3225,291.0826,932.89935L306.3998,948.08606 Z"/>
</g>
<g style="fill:rgb(50,50,50); fill-opacity:1.0; stroke-linejoin: miter">
<path d="M315.3824,955.4293C316.85376,955.42334,318.04044,954.2245,318.03427,952.7542C318.02786,951.28394,316.83084,950.09515,315.35953,950.102C313.8892,950.10803,312.7016,951.3067,312.70773,952.7771C312.7151,954.24835,313.91238,955.4357,315.3824,955.4293 Z"/>
</g>
<g style="fill:rgb(50,50,50); fill-opacity:1.0; stroke-linejoin: miter">
<path d="M339.489,932.68726C334.46268,929.15436,328.62427,926.6991,322.31216,925.65515L322.40503,947.2264C323.05392,947.4552,323.68655,947.71686,324.30328,948.0067L339.489,932.68726 Z"/>
</g>
<g style="fill:rgb(50,50,50); fill-opacity:1.0; stroke-linejoin: miter">
<path d="M296.46066,958.1057L281.1435,942.91956C277.60886,947.94666,275.15424,953.7849,274.11075,960.0982L295.68332,960.0065C295.91205,959.35626,296.17062,958.72235,296.46066,958.1057 Z"/>
</g>
<g style="fill:rgb(50,50,50); fill-opacity:1.0; stroke-linejoin: miter">
<path d="M291.375,1001.2678C296.4024,1004.801,302.2408,1007.25635,308.55396,1008.2997L308.46072,986.729C307.81204,986.49976,307.17868,986.2386,306.56186,985.9488L291.375,1001.2678 Z"/>
</g>
<g style="fill:rgb(50,50,50); fill-opacity:1.0; stroke-linejoin: miter">
<path d="M295.74188,974.1187L274.1712,974.21326C275.26917,980.5159,277.77515,986.33167,281.35187,991.33075L296.53845,976.01086C296.24442,975.39685,295.9765,974.7665,295.74188,974.1187 Z"/>
</g>
<g style="fill:rgb(50,50,50); fill-opacity:1.0; stroke-linejoin: miter">
<path d="M303.88538,967.0263C303.87888,965.5548,302.682,964.368,301.211,964.37396C299.73965,964.38025,298.55267,965.57733,298.5591,967.0489C300.0296,967.0425,301.21735,965.8451,301.211,964.37396 Z"/>
</g>
<g style="fill:rgb(50,50,50); fill-opacity:1.0; stroke-linejoin: miter">
<path d="M326.9794,966.9267C326.98572,968.3975,328.18323,969.5844,329.65405,969.578C331.1254,969.5715,332.31207,968.3749,332.30612,966.9035C330.8346,966.91095,329.64792,968.1081,329.65405,969.578 Z"/>
</g>
<g style="fill:rgb(50,50,50); fill-opacity:1.0; stroke-linejoin: miter">
<path d="M315.13715,898.3939C277.2585,898.55756,246.68323,929.3955,246.84634,967.27625C247.00943,1005.1554,277.8492,1035.73,315.7275,1035.5671C353.60675,1035.4033,384.18124,1004.5635,384.01804,966.68475C383.85498,928.8044,353.01636,898.2308,315.13715,898.3939 Z M315.6431,1015.96814C288.58667,1016.0856,266.55887,994.2461,266.44208,967.1894C266.32587,940.1335,288.16458,918.105,315.22122,917.98816C342.27737,917.87085,364.30548,939.71106,364.4219,966.76624C364.53873,993.8241,342.69943,1015.8518,315.6431,1015.96814 Z"/>
</g>
</g>
<g>
<g style="fill:rgb(60,70,79); fill-opacity:1.0; stroke-linejoin: miter">
<path d="M639.2077,701.0702L638.7596,707.9006Q635.5273,728.5437,619.7003,740.94226Q603.7633,753.33167,582.1356,751.02985Q561.4931,747.79736,549.09467,731.9701Q545.12164,726.854,542.5454,720.8172L540.3785,714.6106Q538.5901,708.20337,538.5589,701.23486Q539.06384,679.84937,553.2408,665.6254Q567.4181,651.4021,588.8016,650.8282Q610.18744,651.333,624.41077,665.5096Q638.6338,679.68695,639.2077,701.0702 Z"/>
</g>
<g style="fill:rgb(50,50,50); fill-opacity:1.0; stroke-linejoin: miter">
<path d="M589.79816,696.8577C586.6594,696.8712,584.1251,699.427,584.13873,702.567C584.152,705.7054,586.70807,708.23956,589.8471,708.22614 Z"/>
</g>
<g style="fill:rgb(50,50,50); fill-opacity:1.0; stroke-linejoin: miter">
<path d="M589.8676,712.9881C588.5374,712.99445,587.4627,714.078,587.4685,715.40906C587.4743,716.7389,588.5573,717.81335,589.88855,717.8076C591.2195,717.8023,592.2933,716.7182,592.2874,715.3882C592.2818,714.05743,591.1986,712.9827,589.8676,712.9881 Z"/>
</g>
<g style="fill:rgb(50,50,50); fill-opacity:1.0; stroke-linejoin: miter">
<path d="M596.2848,720.35657L596.3685,739.8716C602.0718,738.87805,607.3328,736.61096,611.8532,733.37427L597.99536,719.6355C597.43933,719.9013,596.87006,720.14417,596.2848,720.35657 Z"/>
</g>
<g style="fill:rgb(50,50,50); fill-opacity:1.0; stroke-linejoin: miter">
<path d="M606.9876,710.5686L620.84546,724.30756C624.0434,719.76,626.263,714.4772,627.2077,708.76526L607.69116,708.85046C607.4832,709.436,607.24896,710.01074,606.9876,710.5686 Z"/>
</g>
<g style="fill:rgb(50,50,50); fill-opacity:1.0; stroke-linejoin: miter">
<path d="M606.91644,694.3692C607.1826,694.9252,607.4239,695.49506,607.6368,696.081L627.15265,695.99774C626.15967,690.2934,623.8917,685.0325,620.6558,680.5116L606.91644,694.3692 Z"/>
</g>
<g style="fill:rgb(50,50,50); fill-opacity:1.0; stroke-linejoin: miter">
<path d="M581.651,685.44965C582.20764,685.1826,582.7774,684.94104,583.3623,684.7287L583.27814,665.21326C577.575,666.20636,572.31396,668.4744,567.79364,671.7103L581.651,685.44965 Z"/>
</g>
<g style="fill:rgb(50,50,50); fill-opacity:1.0; stroke-linejoin: miter">
<path d="M589.77765,692.0931C591.10864,692.08777,592.1823,691.0031,592.1767,689.673C592.171,688.3428,591.08795,687.2674,589.757,687.2735C588.4267,687.27905,587.35223,688.3634,587.35785,689.6937C587.36444,691.02466,588.4477,692.09894,589.77765,692.0931 Z"/>
</g>
<g style="fill:rgb(50,50,50); fill-opacity:1.0; stroke-linejoin: miter">
<path d="M611.58673,671.51843C607.0394,668.3223,601.7575,666.101,596.047,665.1567L596.13104,684.67206C596.71814,684.87897,597.29047,685.1157,597.8483,685.37787L611.58673,671.51843 Z"/>
</g>
<g style="fill:rgb(50,50,50); fill-opacity:1.0; stroke-linejoin: miter">
<path d="M572.65924,694.5143L558.8019,680.7755C555.6042,685.3236,553.3835,690.60547,552.4394,696.317L571.9559,696.23395C572.16284,695.64575,572.3967,695.0722,572.65924,694.5143 Z"/>
</g>
<g style="fill:rgb(50,50,50); fill-opacity:1.0; stroke-linejoin: miter">
<path d="M568.0582,733.56287C572.6064,736.7594,577.8884,738.98065,583.60004,739.92456L583.5156,720.40967C582.9287,720.20233,582.35583,719.966,581.79767,719.7038L568.0582,733.56287 Z"/>
</g>
<g style="fill:rgb(50,50,50); fill-opacity:1.0; stroke-linejoin: miter">
<path d="M572.009,709.00116L552.49414,709.08673C553.4874,714.78876,555.7546,720.05023,558.9904,724.5729L572.7297,710.7131C572.46356,710.1576,572.22125,709.5872,572.009,709.00116 Z"/>
</g>
<g style="fill:rgb(50,50,50); fill-opacity:1.0; stroke-linejoin: miter">
<path d="M579.3762,702.5848C579.3704,701.25354,578.2876,700.1799,576.9568,700.1852C575.6257,700.191,574.5519,701.2739,574.55774,702.60516C575.8879,702.5993,576.9625,701.5162,576.9568,700.1852 Z"/>
</g>
<g style="fill:rgb(50,50,50); fill-opacity:1.0; stroke-linejoin: miter">
<path d="M600.26935,702.4947C600.2751,703.8253,601.3586,704.8991,602.68915,704.8933C604.0203,704.88745,605.0938,703.80493,605.0883,702.47375C603.75726,702.48047,602.68353,703.5636,602.68915,704.8933 Z"/>
</g>
<g style="fill:rgb(50,50,50); fill-opacity:1.0; stroke-linejoin: miter">
<path d="M589.55566,640.4935C555.2873,640.64154,527.6258,668.5404,527.7734,702.8108C527.92096,737.0799,555.82153,764.7406,590.08984,764.5934C624.35895,764.4451,652.0194,736.5445,651.87164,702.2758C651.72406,668.0056,623.82477,640.34607,589.55566,640.4935 Z M590.0134,746.8622C565.53564,746.9684,545.60724,727.2103,545.50165,702.7323C545.3966,678.255,565.1539,658.326,589.6319,658.22034C614.1094,658.11414,634.03796,677.8729,634.1433,702.34955C634.249,726.8287,614.49115,746.7571,590.0134,746.8622 Z"/>
</g>
</g>
<g style="fill:rgb(34,43,50); fill-opacity:1.0; stroke-linejoin: miter">
<path d="M745.15,777.65814L774.8703,777.6586L804.59045,777.65924Q804.59045,902.36993,804.59045,1027.0807Q774.8703,1027.0812,745.15,1027.0815Q745.15,902.3699,745.15,777.65814"/>
</g>
<g style="fill:rgb(255,255,255); fill-opacity:1.0; stroke-linejoin: miter">
<path d="M745.61444,784.4495L747.6765,784.44977L749.7386,784.45Q749.7386,832.6015,749.7386,880.75305Q747.6765,880.75323,745.61444,880.7535Q745.61444,832.60144,745.61444,784.4495"/>
</g>
<g style="fill:rgb(60,70,79); fill-opacity:1.0; stroke-linejoin: miter">
<path d="M788.10565,809.1198L788.0207,810.3818Q787.4172,814.1954,784.4886,816.4818Q781.53986,818.7665,777.5438,818.33466Q773.73016,817.7311,771.44366,814.8026Q769.15894,811.8539,769.5908,807.85785Q770.19434,804.0442,773.12286,801.7577Q776.0717,799.473,780.0677,799.90485Q783.8814,800.5084,786.16785,803.43695Q786.90045,804.38354,787.3748,805.4999L787.7734,806.6475Q788.1019,807.8321,788.10565,809.1198"/>
</g>
<g style="fill:rgb(28,55,76); fill-opacity:1.0; stroke-linejoin: miter">
<path d="M768.3041,899.42786L777.4096,899.4282L786.5152,899.42847Q786.5152,953.2579,786.5152,1007.08716Q777.4096,1007.0875,768.3041,1007.0879Q768.3041,953.25793,768.3041,899.42786"/>
</g>
<g style="fill:rgb(179,131,117); fill-opacity:1.0; stroke-linejoin: miter">
<path d="M440.89532,722.3388L441.81732,723.13184Q444.59076,725.5849,447.29733,727.37164Q448.19705,727.94257,449.08188,728.3653L449.9621,728.7418Q450.70837,729.0598,451.95306,729.2418Q452.7349,729.3254,453.47845,729.24524L454.22415,729.1322Q454.96616,728.9821,455.696,728.7112Q456.0665,728.63116,457.865,727.6935Q458.94272,727.1174,461.4215,725.415L451.29312,734.92114L440.89532,722.3388"/>
</g>
</g>
</svg>